<?xml version="1.0" standalone="no"?>
<!DOCTYPE svg PUBLIC "-//W3C//DTD SVG 20010904//EN"
 "http://www.w3.org/TR/2001/REC-SVG-20010904/DTD/svg10.dtd">
<svg version="1.0" xmlns="http://www.w3.org/2000/svg"
 width="400.000000pt" height="400.000000pt" viewBox="0 0 400.000000 400.000000"
 preserveAspectRatio="xMidYMid meet">
<metadata>
Created by potrace 1.14, written by Peter Selinger 2001-2017
</metadata>
<g transform="translate(0.000000,400.000000) scale(0.100000,-0.100000)"
fill="#000000" stroke="none">
<path d="M2098 3618 c-94 -88 -35 -242 93 -242 33 0 55 6 69 19 27 25 25 39
-5 31 -14 -3 -36 -9 -49 -12 -39 -10 -76 34 -76 88 0 96 68 141 128 85 l22
-20 0 35 c0 20 -5 35 -12 36 -123 17 -133 15 -170 -20z"/>
<path d="M1565 3570 c-11 -4 -42 -16 -68 -25 -46 -16 -47 -18 -34 -39 8 -11
29 -66 48 -121 18 -55 34 -102 36 -103 2 -5 73 18 73 23 0 2 -9 24 -19 48 -18
42 -18 57 0 57 9 0 30 -20 58 -56 20 -26 22 -26 66 -14 l45 13 -45 39 c-43 38
-44 40 -38 88 5 44 3 51 -22 74 -28 26 -63 32 -100 16z m40 -85 c0 -33 -3 -40
-20 -40 -14 0 -23 10 -31 35 -14 43 -10 52 24 48 24 -3 27 -7 27 -43z"/>
<path d="M2488 3522 c-20 -31 -59 -82 -87 -113 -40 -45 -47 -58 -35 -63 29
-11 44 -6 56 19 10 22 16 25 42 19 46 -9 55 -21 49 -58 -5 -30 -2 -34 23 -40
16 -4 36 -9 44 -11 13 -4 14 14 10 134 -3 77 -7 141 -10 143 -13 9 -50 28 -52
27 -2 0 -20 -26 -40 -57z m32 -77 c0 -35 -12 -43 -39 -26 -11 7 -10 13 4 35
24 36 35 33 35 -9z"/>
<path d="M1250 3418 c-19 -12 -37 -25 -40 -28 -3 -3 -18 -14 -33 -24 l-29 -18
20 -21 c27 -29 122 -175 122 -187 0 -18 19 -10 90 38 72 49 87 75 55 102 -12
10 -15 9 -15 -5 0 -17 -55 -75 -71 -75 -12 0 -41 59 -34 70 3 6 13 10 21 10
18 0 18 19 -1 44 -14 18 -15 18 -33 -4 l-19 -23 -23 33 -23 33 24 19 c15 11
36 17 55 15 31 -3 31 -2 17 20 -19 29 -38 29 -83 1z"/>
<path d="M2779 3369 c-24 -39 -56 -85 -71 -102 -15 -18 -28 -35 -28 -40 0 -8
60 -47 73 -47 4 0 7 7 7 15 0 23 30 65 46 65 7 0 18 -10 25 -21 11 -21 11 -21
29 7 20 33 17 44 -11 44 -10 0 -19 5 -19 11 0 18 33 69 45 69 16 0 65 -53 65
-70 0 -9 6 -6 16 8 9 13 13 29 11 37 -6 14 -120 95 -135 95 -5 0 -29 -32 -53
-71z"/>
<path d="M1879 3250 c-272 -49 -525 -204 -692 -422 -98 -128 -154 -243 -199
-408 l-23 -85 -3 -947 -3 -948 1101 0 1100 0 0 929 c0 905 -1 932 -21 1017
-42 177 -99 303 -195 431 -158 211 -380 357 -639 419 -79 19 -351 28 -426 14z
m756 -761 c40 -36 45 -72 19 -134 -19 -46 -12 -57 8 -14 18 35 30 25 30 -24 0
-69 -47 -141 -116 -182 -55 -32 -191 -80 -282 -99 -38 -8 -78 -18 -88 -22 -13
-5 -17 -4 -12 4 7 12 56 36 96 47 59 17 237 113 279 152 52 47 51 64 -3 33
-20 -11 -51 -28 -68 -38 -46 -26 -157 -58 -263 -77 -188 -32 -234 -55 -276
-137 -20 -40 -22 -80 -4 -122 7 -17 6 -17 -16 -6 -34 18 -39 29 -39 80 0 50
27 116 56 141 55 47 170 92 302 118 182 37 302 94 338 163 16 31 19 114 4 123
-10 6 -14 25 -5 25 2 0 20 -14 40 -31z m121 -94 c100 -20 103 -143 7 -239 -43
-43 -138 -80 -233 -91 -30 -3 -66 -8 -80 -10 l-25 -4 25 11 c14 7 57 27 96 44
144 66 221 191 164 264 -24 31 -25 43 -2 36 9 -2 31 -7 48 -11z m-273 -224
c-13 -11 -73 -40 -135 -66 -218 -91 -298 -144 -298 -198 0 -14 -3 -18 -10 -11
-16 16 -1 69 31 107 36 43 87 68 252 118 72 22 140 47 151 55 29 20 35 17 9
-5z m-603 -240 c0 -17 -11 -20 -102 -26 -57 -4 -111 -12 -121 -17 -12 -6 -23
-6 -33 3 -11 9 -14 8 -14 -4 0 -30 92 -41 365 -41 231 -1 264 1 299 17 21 10
35 22 30 27 -5 4 -57 10 -116 12 -59 2 -110 6 -113 10 -37 37 173 37 258 0 57
-26 65 -57 17 -73 -29 -11 -41 -29 -19 -29 8 0 10 -14 6 -42 -3 -24 -3 -36 0
-28 31 82 137 56 150 -36 9 -66 -33 -125 -140 -196 -42 -28 -42 -28 -13 -28
49 0 189 -32 228 -51 46 -24 60 -62 32 -89 -27 -26 -156 -66 -314 -97 -120
-23 -158 -26 -345 -26 -188 0 -224 3 -338 26 -252 52 -327 85 -313 140 8 35
51 56 156 78 134 29 240 23 240 -12 0 -3 -30 -9 -67 -13 -80 -8 -166 -26 -159
-33 3 -3 40 0 84 5 83 12 157 5 97 -9 -16 -4 -48 -7 -70 -8 -22 -1 -47 -6 -55
-12 -11 -8 4 -9 55 -5 84 7 122 -8 49 -19 -38 -6 -45 -9 -29 -15 11 -5 29 -6
40 -4 11 3 32 1 45 -5 22 -9 21 -10 -18 -10 -24 -1 -41 -5 -38 -10 9 -14 -158
17 -209 39 -28 12 -49 28 -52 40 -7 26 -23 16 -23 -14 0 -35 59 -55 275 -93
141 -25 527 -25 670 0 244 43 303 68 275 115 -9 16 -9 16 -10 0 0 -22 -87 -63
-163 -77 -62 -11 -180 -4 -171 10 3 5 31 9 62 10 41 0 51 3 37 9 -11 5 -33 9
-50 10 -26 0 -28 2 -11 11 11 7 44 9 85 5 82 -7 54 10 -32 19 -35 4 -55 10
-51 17 6 9 66 6 153 -9 23 -4 32 -2 27 5 -4 6 -33 14 -65 18 -75 8 -90 16 -70
40 13 17 13 17 -11 1 -14 -9 -34 -30 -45 -47 -11 -17 -30 -33 -41 -36 -13 -3
-27 -21 -36 -43 -18 -45 -29 -49 -178 -57 -129 -7 -198 8 -216 46 -7 14 -19
56 -28 93 -9 37 -27 91 -41 120 -57 126 -83 184 -90 206 -9 31 -45 91 -54 91
-3 0 -12 9 -19 21 -27 42 29 65 193 78 159 13 155 13 155 -8z m55 -728 c177
-4 252 -9 235 -15 -42 -16 -446 -3 -510 15 -35 11 -42 15 -20 12 19 -3 152 -8
295 -12z m-747 -445 c7 -7 12 -24 12 -40 0 -30 -23 -48 -64 -48 -24 0 -26 3
-26 50 0 50 0 50 33 50 18 0 38 -5 45 -12z m130 -15 c2 -13 -2 -23 -8 -23 -8
0 -7 -8 4 -25 21 -32 1 -34 -25 -2 l-18 22 -1 -22 c0 -13 -4 -23 -10 -23 -5 0
-10 23 -10 51 l0 50 33 -3 c24 -2 33 -8 35 -25z m72 -23 c0 -27 -4 -50 -10
-50 -5 0 -10 23 -10 50 0 28 5 50 10 50 6 0 10 -22 10 -50z m90 25 c7 -14 17
-25 22 -25 4 0 8 11 8 25 0 14 5 25 10 25 6 0 10 -22 10 -50 0 -27 -3 -50 -6
-50 -4 0 -19 15 -35 33 l-29 32 0 -32 c0 -18 -4 -33 -10 -33 -5 0 -10 23 -10
50 0 56 17 67 40 25z m120 10 c0 -20 20 -19 36 2 7 10 16 15 20 11 4 -5 0 -16
-9 -25 -14 -17 -14 -20 4 -42 11 -13 17 -27 13 -30 -3 -3 -14 4 -24 17 -23 27
-40 28 -40 2 0 -11 -4 -20 -10 -20 -5 0 -10 23 -10 50 0 28 5 50 10 50 6 0 10
-7 10 -15z m238 8 c-14 -3 -18 -15 -18 -49 0 -32 -4 -44 -15 -44 -11 0 -15 12
-15 44 0 34 -4 46 -17 49 -10 3 5 5 32 5 28 0 42 -2 33 -5z m72 -13 c0 -15 7
-20 25 -20 18 0 25 5 25 20 0 11 5 20 10 20 6 0 10 -22 10 -50 0 -27 -4 -50
-10 -50 -5 0 -10 11 -10 25 0 20 -5 25 -25 25 -20 0 -25 -5 -25 -25 0 -14 -4
-25 -10 -25 -5 0 -10 23 -10 50 0 28 5 50 10 50 6 0 10 -9 10 -20z m173 13
c-25 -5 -32 -33 -8 -33 8 0 15 -4 15 -10 0 -5 -7 -10 -15 -10 -8 0 -15 -4 -15
-10 0 -5 6 -10 14 -10 8 0 18 -4 21 -10 4 -6 -8 -10 -29 -10 l-36 0 0 50 0 50
38 -1 c23 -1 28 -3 15 -6z m205 -5 c7 -7 12 -24 12 -40 0 -30 -23 -48 -64 -48
-24 0 -26 3 -26 50 0 50 0 50 33 50 18 0 38 -5 45 -12z m105 5 c-25 -5 -32
-33 -8 -33 8 0 15 -4 15 -10 0 -5 -7 -10 -15 -10 -8 0 -15 -4 -15 -10 0 -5 9
-10 20 -10 11 0 20 -4 20 -10 0 -5 -13 -10 -30 -10 -29 0 -30 1 -30 50 l0 50
33 -1 c23 -1 26 -3 10 -6z m87 -33 c0 -28 4 -40 14 -40 8 0 18 -4 21 -10 4 -6
-7 -10 -24 -10 -30 0 -31 1 -31 50 0 28 5 50 10 50 6 0 10 -18 10 -40z m100
-10 c0 -27 -4 -50 -10 -50 -5 0 -10 23 -10 50 0 28 5 50 10 50 6 0 10 -22 10
-50z m140 39 c0 -6 -9 -9 -20 -6 -10 3 -27 -1 -36 -7 -23 -17 -14 -50 15 -54
18 -3 22 0 18 12 -4 10 -1 16 8 16 20 0 19 -39 -1 -47 -20 -7 -63 12 -71 33
-3 8 -1 26 5 40 9 19 19 24 47 24 19 0 35 -5 35 -11z m70 -9 c0 -15 7 -20 25
-20 18 0 25 5 25 20 0 11 5 20 10 20 6 0 10 -22 10 -50 0 -50 -16 -70 -22 -27
-2 14 -10 22 -23 22 -13 0 -21 -8 -23 -22 -6 -43 -22 -23 -22 27 0 28 5 50 10
50 6 0 10 -9 10 -20z m178 13 c-14 -3 -18 -15 -18 -49 0 -24 -4 -44 -10 -44
-5 0 -10 20 -10 44 0 34 -4 46 -17 49 -10 3 2 5 27 5 25 0 37 -2 28 -5z"/>
<path d="M2168 1913 c12 -2 30 -2 40 0 9 3 -1 5 -23 4 -22 0 -30 -2 -17 -4z"/>
<path d="M1560 1889 c0 -9 11 -29 24 -44 22 -25 36 -30 113 -41 48 -7 167 -12
263 -12 l175 1 -200 7 c-179 7 -309 21 -323 35 -3 3 8 6 24 6 21 1 23 3 9 6
-23 6 -67 33 -77 48 -5 6 -8 3 -8 -6z"/>
<path d="M1650 1779 c0 -8 80 -19 134 -18 31 0 36 2 21 8 -26 11 -155 19 -155
10z"/>
<path d="M1655 1740 c3 -5 39 -9 78 -9 l72 2 -50 7 c-72 12 -107 12 -100 0z"/>
<path d="M2350 1701 c-14 -17 -29 -30 -35 -31 -5 0 -31 -45 -57 -99 -63 -130
-67 -142 -35 -105 15 18 46 41 69 52 24 11 69 45 101 76 53 51 58 59 55 93 -3
35 -5 38 -38 41 -29 2 -40 -3 -60 -27z m70 -29 c0 -26 -95 -112 -124 -112 -9
0 14 54 32 75 22 27 63 55 79 55 7 0 13 -8 13 -18z"/>
<path d="M1665 1710 c3 -6 36 -10 72 -10 83 0 79 5 -10 13 -43 4 -66 3 -62 -3z"/>
<path d="M1670 1671 c0 -7 29 -11 77 -11 42 0 74 2 72 4 -11 10 -149 16 -149
7z"/>
<path d="M1717 1633 c18 -2 50 -2 70 0 21 2 7 4 -32 4 -38 0 -55 -2 -38 -4z"/>
<path d="M1704 1601 c4 -6 32 -11 63 -11 70 0 66 5 -11 15 -41 5 -56 3 -52 -4z"/>
<path d="M1725 1560 c3 -5 26 -10 50 -10 24 0 47 5 50 10 4 6 -15 10 -50 10
-35 0 -54 -4 -50 -10z"/>
<path d="M1740 1529 c0 -5 26 -9 58 -8 64 1 60 5 -10 12 -27 2 -48 1 -48 -4z"/>
<path d="M1788 1483 c17 -2 47 -2 65 0 17 2 3 4 -33 4 -36 0 -50 -2 -32 -4z"/>
<path d="M1780 1450 c0 -5 22 -10 49 -10 28 0 53 5 56 10 4 6 -15 10 -49 10
-31 0 -56 -4 -56 -10z"/>
<path d="M1800 1410 c8 -5 26 -10 40 -10 14 0 32 5 40 10 11 7 -1 10 -40 10
-39 0 -51 -3 -40 -10z"/>
<path d="M1800 1380 c8 -5 38 -9 65 -9 l50 1 -40 9 c-22 4 -51 8 -65 8 -20 1
-22 -1 -10 -9z"/>
<path d="M1790 1342 c0 -12 75 -22 159 -21 60 1 63 2 26 9 -77 15 -185 22
-185 12z"/>
<path d="M1130 726 c0 -30 4 -36 20 -36 40 0 36 60 -4 68 -12 3 -16 -4 -16
-32z"/>
<path d="M1270 740 c0 -13 5 -20 13 -17 6 2 12 10 12 17 0 7 -6 15 -12 18 -8
2 -13 -5 -13 -18z"/>
<path d="M2230 726 c0 -30 4 -36 20 -36 40 0 36 60 -4 68 -12 3 -16 -4 -16
-32z"/>
<path d="M996 3221 c-16 -17 -15 -19 7 -34 42 -28 91 -76 84 -83 -4 -4 -30 -2
-58 4 -83 19 -118 16 -145 -15 l-23 -27 27 -17 c15 -9 61 -48 102 -88 l75 -71
17 22 c16 22 16 23 -3 30 -22 9 -111 89 -105 95 2 3 45 -3 95 -13 87 -17 91
-17 111 1 23 21 25 32 7 48 -7 7 -49 47 -93 90 -78 75 -81 77 -98 58z"/>
<path d="M3002 3142 l-93 -95 63 -64 c34 -34 66 -63 71 -63 4 0 17 9 28 19
l21 19 -30 7 c-16 3 -40 17 -52 31 l-23 24 23 25 c28 30 40 31 47 5 7 -26 24
-25 46 0 21 25 21 27 -3 33 -27 7 -25 19 6 48 l26 24 24 -28 c13 -15 24 -40
24 -55 l1 -27 19 24 c11 13 20 29 20 35 0 12 -114 138 -122 134 -1 -1 -45 -44
-96 -96z"/>
<path d="M742 2870 c-9 -11 -32 -48 -50 -82 -32 -61 -31 -77 4 -78 13 0 165
-77 178 -91 18 -17 34 -9 51 27 9 20 15 37 13 38 -1 1 -23 9 -48 17 -25 9 -45
20 -45 25 0 5 28 10 62 12 63 3 71 8 90 54 l12 26 -53 -5 c-42 -4 -56 -2 -67
11 -59 70 -112 87 -147 46z m73 -70 c15 -17 16 -22 4 -37 -7 -10 -14 -19 -15
-21 -1 -2 -18 7 -38 19 -30 18 -34 24 -26 40 14 25 52 24 75 -1z"/>
<path d="M3324 2729 c-57 -16 -104 -78 -104 -136 0 -58 67 -140 93 -114 7 7 3
18 -16 35 -29 27 -35 63 -16 98 21 39 115 61 160 38 22 -12 26 -68 8 -102 -10
-19 -9 -20 7 -13 11 4 26 9 35 12 13 4 16 13 12 46 -3 23 -12 56 -19 72 -24
53 -99 82 -160 64z"/>
<path d="M636 2531 c-66 -43 -85 -123 -45 -188 72 -117 259 -67 259 69 0 105
-127 176 -214 119z m121 -71 c69 -31 70 -90 1 -104 -96 -19 -194 68 -120 108
36 20 69 19 119 -4z"/>
<path d="M3353 2380 c-41 -25 -63 -68 -63 -125 0 -39 5 -50 40 -85 36 -36 45
-40 91 -40 77 0 116 27 138 93 14 40 7 88 -16 123 -34 52 -132 70 -190 34z
m155 -76 c56 -37 3 -94 -89 -94 -47 0 -62 4 -79 22 -11 12 -20 25 -20 28 0 15
43 50 68 56 15 3 32 7 37 9 16 6 58 -5 83 -21z"/>
<path d="M750 2169 c0 -6 7 -17 15 -25 21 -21 19 -70 -4 -93 -27 -27 -91 -36
-134 -17 -46 19 -57 53 -30 99 l20 33 -33 -4 c-22 -3 -33 -9 -33 -21 0 -9 -2
-34 -6 -56 -7 -48 18 -95 67 -125 56 -34 135 -20 180 33 35 39 35 131 1 169
-18 20 -43 24 -43 7z"/>
<path d="M3296 2025 c-19 -20 -20 -26 -3 -49 26 -36 84 4 61 42 -15 23 -38 26
-58 7z"/>
</g>
</svg>
